<svg id="dots" xmlns="http://www.w3.org/2000/svg" width="101" height="110" viewBox="0 0 101 110">
  <circle id="Oval_2" data-name="Oval 2" cx="7.5" cy="7.5" r="7.5" fill="#f8f8f8"/>
  <circle id="Oval_2_Copy_8" data-name="Oval 2 Copy 8" cx="7.5" cy="7.5" r="7.5" transform="translate(57)" fill="#f8f8f8"/>
  <circle id="Oval_2_Copy_4" data-name="Oval 2 Copy 4" cx="7.5" cy="7.5" r="7.5" transform="translate(0 63)" fill="#f8f8f8"/>
  <circle id="Oval_2_Copy_9" data-name="Oval 2 Copy 9" cx="7.5" cy="7.5" r="7.5" transform="translate(57 63)" fill="#f8f8f8"/>
  <circle id="Oval_2_Copy_2" data-name="Oval 2 Copy 2" cx="7.5" cy="7.5" r="7.5" transform="translate(0 32)" fill="#f8f8f8"/>
  <circle id="Oval_2_Copy_10" data-name="Oval 2 Copy 10" cx="7.5" cy="7.5" r="7.5" transform="translate(57 32)" fill="#f8f8f8"/>
  <circle id="Oval_2_Copy_5" data-name="Oval 2 Copy 5" cx="7.5" cy="7.5" r="7.5" transform="translate(0 95)" fill="#f8f8f8"/>
  <circle id="Oval_2_Copy_11" data-name="Oval 2 Copy 11" cx="7.5" cy="7.5" r="7.5" transform="translate(57 95)" fill="#f8f8f8"/>
  <circle id="Oval_2_Copy" data-name="Oval 2 Copy" cx="7.5" cy="7.5" r="7.5" transform="translate(29)" fill="#f8f8f8"/>
  <circle id="Oval_2_Copy_12" data-name="Oval 2 Copy 12" cx="7.5" cy="7.5" r="7.5" transform="translate(86)" fill="#f8f8f8"/>
  <circle id="Oval_2_Copy_6" data-name="Oval 2 Copy 6" cx="7.5" cy="7.5" r="7.5" transform="translate(29 63)" fill="#f8f8f8"/>
  <circle id="Oval_2_Copy_13" data-name="Oval 2 Copy 13" cx="7.5" cy="7.5" r="7.5" transform="translate(86 63)" fill="#f8f8f8"/>
  <circle id="Oval_2_Copy_3" data-name="Oval 2 Copy 3" cx="7.5" cy="7.5" r="7.5" transform="translate(29 32)" fill="#f8f8f8"/>
  <circle id="Oval_2_Copy_14" data-name="Oval 2 Copy 14" cx="7.5" cy="7.5" r="7.5" transform="translate(86 32)" fill="#f8f8f8"/>
  <circle id="Oval_2_Copy_7" data-name="Oval 2 Copy 7" cx="7.5" cy="7.5" r="7.5" transform="translate(29 95)" fill="#f8f8f8"/>
  <circle id="Oval_2_Copy_15" data-name="Oval 2 Copy 15" cx="7.5" cy="7.5" r="7.5" transform="translate(86 95)" fill="#f8f8f8"/>
</svg>
