<svg xmlns="http://www.w3.org/2000/svg" width="171.33" height="349.47" viewBox="0 0 171.33 349.47">
  <g id="Happy_man" data-name="Happy man" transform="translate(-0.98 -0.95)">
    <path id="Shape" d="M16.011,26.494l-.42-6.68s1.93.16,3.18-3.29S20.181,2.274,15.591.6,1.011.764,1.4,5.6c.94,11.69,2.5,4.17,2.5,4.17s-6.26,1.25-2.92,6.68,7.49,2.94,7.49,2.94l1.25,10Z" transform="translate(141.529 27.316)" fill="#e5beb1"/>
    <path id="Shape-2" data-name="Shape" d="M3.68,0,2.15,25.16,0,37.87l9.33,3.14,10.83,3.87-.31-18.67.4-19.05L3.68,0Z" transform="translate(80.39 53.93)" fill="#c9a095"/>
    <path id="Shape-3" data-name="Shape" d="M21.089.719C8.279,3.139,8.3,11.879,8.3,11.879a78.44,78.44,0,0,0-1,13.11,4.18,4.18,0,0,0-5.15-1.62c-4.39,1.69-1.71,15.43,4.91,14.5a35,35,0,0,0,2,9.51c1.7,3.94,9.6,10.15,16.76,11.34s16.48-2.45,17.48-10.88c1.37-11.68.76-37,.76-37S42.3-3.3,21.089.719Z" transform="translate(69.851 11.021)" fill="#e5beb1"/>
    <path id="Shape-4" data-name="Shape" d="M12.38,1.758C8.95,1.618,3.62.238.2.028c0-.34-.14,2.51-.13,2.54C.58,4.078,0,17.478,0,17.478c3.44.29,3.24,3.06,3.24,3.06l.23,6.19,3.44-.23.69-13.06a6.81,6.81,0,0,0,3.21-3.21S11.77,4.1,12.38,1.758Z" transform="translate(73.62 16.902)" fill="#263d49"/>
    <path id="Shape-5" data-name="Shape" d="M0,2.677a7.76,7.76,0,0,1,2.87-2A8.51,8.51,0,0,1,8.19.237a8.06,8.06,0,0,1,1.68.68,7.21,7.21,0,0,1,2.61,2.34,21.55,21.55,0,0,0-3.05-1.29,10.17,10.17,0,0,0-3.07-.51A18.08,18.08,0,0,0,0,2.677Z" transform="translate(86.11 24.673)" fill="#172d3a"/>
    <path id="Shape-6" data-name="Shape" d="M0,2.864A5.71,5.71,0,0,1,2.11.774a5.39,5.39,0,0,1,3-.77,4.87,4.87,0,0,1,2.92,1.14,6.11,6.11,0,0,1,1.06,1.13,8.85,8.85,0,0,1,.71,1.3c-.44-.26-.8-.56-1.18-.82l-.59-.36a2.82,2.82,0,0,0-.58-.32,5.63,5.63,0,0,0-2.4-.67A10,10,0,0,0,0,2.864Z" transform="translate(103.73 27.726)" fill="#172d3a"/>
    <path id="Shape-7" data-name="Shape" d="M24.339,21.25s-10.1-2.58-11.84.54-2.43,6.6-5.21,5.21S5.939,0,5.939,0L1.769,8.33S-6.721,39.71,13.5,43.49c20.87,3.89,25.69-4,24.31-15.45,0,0-2.43,1-3.47-2.08S35.769,20.23,24.339,21.25Z" transform="translate(75.501 28.21)" fill="#263d49"/>
    <path id="Shape-8" data-name="Shape" d="M.077,18.52s-1.43-11.07,8-9.82A25.44,25.44,0,0,1,28.827.05l-5.74,2.91s7.89-4.66,20.8.72a7.48,7.48,0,0,1-6.45,5s6.1-.72,7.53-1.79c0,0-.72,8.61-5.38,10.4s-21.51-6.81-28,1.43-10.4-1.43-10.4-1.43" transform="translate(73.623 0.95)" fill="#263d49"/>
    <path id="Shape-9" data-name="Shape" d="M1.1,0l14,2s-.09,11.76-9.29,10.37S1.1,0,1.1,0Z" transform="translate(84.555 29.95)" fill="#d4f5ff" stroke="#e0aa69" stroke-miterlimit="10" stroke-width="0.63"/>
    <path id="Shape-10" data-name="Shape" d="M16.69,2.43.52,0,0,1.82,16.28,3.9l.41-1.47Z" transform="translate(83.48 29.04)" fill="#e0aa69"/>
    <path id="Shape-11" data-name="Shape" d="M13.679,1.12.239,0S-2.011,12.75,7.3,12.66,13.679,1.12,13.679,1.12Z" transform="translate(102.761 32.2)" fill="#d4f5ff" stroke="#e0aa69" stroke-miterlimit="10" stroke-width="0.63"/>
    <path id="Shape-12" data-name="Shape" d="M0,0,15.64,1.02,15.9,2.9.17,1.58,0,0Z" transform="translate(102.56 31.63)" fill="#e0aa69"/>
    <path id="Shape-13" data-name="Shape" d="M0,14.43,2.44,0,7.01,13.05,0,14.43Z" transform="translate(99.84 35.03)" fill="#c9a095"/>
    <path id="Shape-14" data-name="Shape" d="M11.31,1.82,0,5.51.16,3.86,11.8,0l-.49,1.82Z" transform="translate(72.2 29.04)" fill="#e0aa69"/>
    <path id="Shape-15" data-name="Shape" d="M0,.494a2.93,2.93,0,0,1,3.58.25" transform="translate(99.22 33.896)" fill="none" stroke="#e0aa69" stroke-miterlimit="10" stroke-width="0.76"/>
    <ellipse id="Oval" cx="76.19" cy="5.46" rx="76.19" ry="5.46" transform="translate(11.73 339.5)" fill="#263d49" opacity="0.1"/>
    <path id="Shape-16" data-name="Shape" d="M0,1.62,3.78,21.54l8.2.11L8.95,0,0,1.62Z" transform="translate(131.28 317.33)" fill="#e5beb1"/>
    <path id="Shape-17" data-name="Shape" d="M12.66,0A26.09,26.09,0,0,0,26.15,4c7.35-.16,14.21.41,14.9,4.42,0,0-8.61,7.77-26.53,7.61l.5,1.63L4.17,20.52,0,7.02,9.08,4.87,8.01,3.74Z" transform="translate(131.23 326.43)" fill="#8e7775"/>
    <path id="Shape-18" data-name="Shape" d="M18.32,6.59C34.04,5.64,36.53.54,37.32,0a2.63,2.63,0,0,1,.39,1S29.1,8.77,11.18,8.61l.5,1.63L.83,13.1,0,10.41C3.88,9.43,6.73,7.28,18.32,6.59Z" transform="translate(134.6 333.83)" fill="#594847"/>
    <path id="Shape-19" data-name="Shape" d="M11.98,1.62,8.2,21.54,0,21.65,3.03,0l8.95,1.62Z" transform="translate(30.03 317.33)" fill="#e5beb1"/>
    <path id="Shape-20" data-name="Shape" d="M28.4,0A26.09,26.09,0,0,1,14.91,4C7.55,3.8.7,4.37,0,8.38c0,0,8.61,7.77,26.53,7.61l-.5,1.63,10.85,2.86L41,6.98,32,4.83,33,3.7Z" transform="translate(1 326.43)" fill="#8e7775"/>
    <path id="Shape-21" data-name="Shape" d="M19.39,6.59C3.67,5.64,1.18.54.39,0A2.62,2.62,0,0,0,0,1S8.61,8.77,26.53,8.61l-.5,1.63L36.88,13.1l.83-2.69C33.83,9.43,31.02,7.28,19.39,6.59Z" transform="translate(0.98 333.83)" fill="#594847"/>
    <path id="Shape-22" data-name="Shape" d="M107.38,104.57c-1.4-12.48-19-71.09-23.28-85.9A51.1,51.1,0,0,0,80.4,0L29.04,9S9.54,90,7.9,104.61C5.69,124.29,0,170.77,0,170.77c3.1,6.71,15.49,4.13,15.49,4.13,2.66-4.87,15.86-64.85,18.08-75.92S52.94,47.85,52.94,47.85l9.51.25c1.38,3.23,17.14,40.3,19.26,50.88,2.21,11.07,15.42,71,18.08,75.92,0,0,12.39,2.58,15.49-4.13C115.31,170.73,109.59,124.25,107.38,104.57Z" transform="translate(28.69 150.92)" fill="#241a43"/>
    <path id="Shape-23" data-name="Shape" d="M2.593,82.272s24.15,10.78,58,12c0,0,6.44-54.3,10.75-84.51A132.24,132.24,0,0,0,39.173.452l-2.61,6.4-1-6.85S9.833-.118,0,1.472C-.067,1.492,1.263,58.812,2.593,82.272Z" transform="translate(53.537 79.788)" fill="#f5b700"/>
    <path id="Shape-24" data-name="Shape" d="M0,5.7l7.93,9.15,5.72-9.13L4.72,0,0,5.7Z" transform="translate(75.38 74.09)" fill="#f2f0f0"/>
    <path id="Shape-25" data-name="Shape" d="M13.41,6.05,5.76,13.1,0,3.31,10.13,0l3.28,6.05Z" transform="translate(92.68 76.89)" fill="#f2f0f0"/>
    <path id="Shape-26" data-name="Shape" d="M0,0S32.29,2.86,48.53,5.86c0,0,10.4,7.19,6.66,15l-42.9,5.88Z" transform="translate(106.09 82.94)" fill="#f5b700"/>
    <path id="Shape-27" data-name="Shape" d="M1.93,64.55s5.36,10,21.63,17.24L29.5,68.88l8.46,13.88s15.95-.28,22.14-10.09l-26-19.28L0,0Z" transform="translate(54 101.45)" fill="#f5b700"/>
    <path id="Shape-28" data-name="Shape" d="M.734,36.721s0-21-.58-33c0,0,4.95-4.28,13.71-3.66,0,0,7,27.38,4.93,40.28,0,0,.48,12.6-4.71,13.08C-4.716,55.211.734,36.721.734,36.721Z" transform="translate(147.186 50.279)" fill="#f5b700"/>
    <path id="Shape-29" data-name="Shape" d="M3.515,26.494l.42-6.68s-1.93.16-3.18-3.29S-.655,2.274,3.935.6s14.58.16,14.19,5c-.94,11.69-2.5,4.17-2.5,4.17s6.26,1.25,2.92,6.68-7.51,2.92-7.51,2.92l-1.25,10Z" transform="translate(14.395 21.056)" fill="#e5beb1"/>
    <path id="Shape-30" data-name="Shape" d="M51.572.375s-27.87-1.5-44.1,1.5c0,0-10.4,7.19-6.66,15l47.95,9Z" transform="translate(13.358 80.625)" fill="#f5b700"/>
    <path id="Shape-31" data-name="Shape" d="M18.443,36.721s0-21,.58-33c0,0-4.95-4.28-13.71-3.66,0,0-7,27.38-4.93,40.28,0,0-.48,12.6,4.71,13.08C23.923,55.191,18.443,36.721,18.443,36.721Z" transform="translate(9.077 44.039)" fill="#f5b700"/>
    <circle id="Oval-2" data-name="Oval" cx="1.36" cy="1.36" r="1.36" transform="translate(88.65 90.63)" fill="#f2f0f0"/>
    <circle id="Oval-3" data-name="Oval" cx="1.36" cy="1.36" r="1.36" transform="translate(87.68 103.03)" fill="#f2f0f0"/>
    <circle id="Oval-4" data-name="Oval" cx="1.36" cy="1.36" r="1.36" transform="translate(87.1 118.52)" fill="#f2f0f0"/>
    <circle id="Oval-5" data-name="Oval" cx="1.36" cy="1.36" r="1.36" transform="translate(86.13 133.24)" fill="#f2f0f0"/>
    <circle id="Oval-6" data-name="Oval" cx="1.36" cy="1.36" r="1.36" transform="translate(84.78 148.93)" fill="#f2f0f0"/>
    <circle id="Oval-7" data-name="Oval" cx="1.36" cy="1.36" r="1.36" transform="translate(82.65 163.06)" fill="#f2f0f0"/>
    <rect id="Rectangle-path" width="2.4" height="17.19" transform="translate(98.936 115.239) rotate(-80.18)" fill="#f2f0f0"/>
    <path id="Shape-32" data-name="Shape" d="M0,0,17.27,1.38S11.89,13.84,0,0Z" transform="translate(90.11 52.71)" fill="#bf8484"/>
    <path id="Shape-33" data-name="Shape" d="M7.89,2.38A12,12,0,0,1,14.28,5.1a10.67,10.67,0,0,0,3-3.73L0,0A32.46,32.46,0,0,0,2.41,2.52a23.38,23.38,0,0,1,5.48-.14Z" transform="translate(90.11 52.71)" fill="#724c4c"/>
    <path id="Shape-34" data-name="Shape" d="M0,3.39A7.38,7.38,0,0,1,1.63,1.21,4.14,4.14,0,0,1,4.2,0,3,3,0,0,1,6.7,1.4a8,8,0,0,1,.65,1.23c.12.44.27.87.36,1.31-.26-.38-.46-.77-.69-1.14a5.671,5.671,0,0,0-.78-1,2.61,2.61,0,0,0-2-1,4.24,4.24,0,0,0-2.22.91A16.89,16.89,0,0,0,0,3.39Z" transform="translate(104.64 35.61)" fill="#172d3a"/>
    <path id="Shape-35" data-name="Shape" d="M0,3.433a7.33,7.33,0,0,1,1.41-2.14A3.76,3.76,0,0,1,3.77,0a2.23,2.23,0,0,1,1.4.41,3.37,3.37,0,0,1,.91,1,6.56,6.56,0,0,1,.8,2.44,14.1,14.1,0,0,0-1.27-2.13,2.19,2.19,0,0,0-1.81-1,3.82,3.82,0,0,0-2,1A18.25,18.25,0,0,0,0,3.433Z" transform="translate(87.23 33.467)" fill="#172d3a"/>
  </g>
</svg>
