<svg id="mobile" xmlns="http://www.w3.org/2000/svg" width="46" height="60" viewBox="0 0 46 60">
  <circle id="Path" cx="2" cy="2" r="2" transform="translate(21 46)" fill="#f5b700"/>
  <path id="Path-2" data-name="Path" d="M9.019,13.107H0A20.911,20.911,0,0,1,5.456,0l6.37,6.37A11.935,11.935,0,0,0,9.019,13.107Z" transform="translate(2.023 33.893)" fill="#339"/>
  <path id="Path-3" data-name="Path" d="M6.37,11.8,0,5.431A20.9,20.9,0,0,1,13.106,0V9A11.925,11.925,0,0,0,6.37,11.8Z" transform="translate(8.894 27.049)" fill="#f5b700"/>
  <path id="Path-4" data-name="Path" d="M0,9V0A20.9,20.9,0,0,1,13.106,5.432L6.736,11.8A11.926,11.926,0,0,0,0,9Z" transform="translate(24 27.048)" fill="#09c"/>
  <path id="Path-5" data-name="Path" d="M2.807,13.1A11.85,11.85,0,0,0,2.3,10.539l4.681-1.9L6.225,6.786l-4.678,1.9A11.99,11.99,0,0,0,0,6.37L6.37,0a20.911,20.911,0,0,1,5.456,13.1Z" transform="translate(32.151 33.895)" fill="#339"/>
  <path id="Shape" d="M23,26a2.992,2.992,0,1,1,2.229-4.988l6.6-2.68A10,10,0,0,0,13,23a1,1,0,0,1-1,1H1a1,1,0,0,1-1-1A22.99,22.99,0,0,1,39.256,6.744,22.883,22.883,0,0,1,46,23a1,1,0,0,1-1,1H34a1,1,0,0,1-1-1,9.942,9.942,0,0,0-.405-2.813L25.99,22.868a3.006,3.006,0,0,1-1.858,2.912A2.967,2.967,0,0,1,23,26Zm0-4a1,1,0,0,0-.925,1.379.986.986,0,0,0,.536.545,1,1,0,0,0,1.311-.533,1.005,1.005,0,0,0-.533-1.312A1.021,1.021,0,0,0,23,22Zm15.376-6.315h0l.751,1.851-4.681,1.9A11.853,11.853,0,0,1,34.958,22h9.019a20.956,20.956,0,0,0-5.456-13.1l-6.37,6.37A12,12,0,0,1,33.7,17.581l4.677-1.9ZM7.479,8.893A20.948,20.948,0,0,0,2.023,22h9.019a11.869,11.869,0,0,1,2.807-6.736ZM24,2.047v9a11.86,11.86,0,0,1,6.736,2.8l6.37-6.37A20.945,20.945,0,0,0,24,2.047Zm-2,0A20.942,20.942,0,0,0,8.894,7.48l6.37,6.37A11.859,11.859,0,0,1,22,11.048Z" transform="translate(0 25)" fill="#353535"/>
  <path id="Shape-2" data-name="Shape" d="M36,5a2,2,0,0,1-2,2H4A2,2,0,0,1,2,5V0H0V5A4,4,0,0,0,4,9H34a4,4,0,0,0,4-4V0H36Z" transform="translate(4 51)" fill="#353535"/>
  <path id="Shape-3" data-name="Shape" d="M38,30V4a4,4,0,0,0-4-4H4A4,4,0,0,0,0,4V30H2V4A2,2,0,0,1,4,2H34a2,2,0,0,1,2,2V30Z" transform="translate(4)" fill="#353535"/>
  <path id="Shape-4" data-name="Shape" d="M0,0H2V2H0Z" transform="translate(20 4)" fill="#f5b700"/>
  <path id="Shape-5" data-name="Shape" d="M0,0H2V2H0Z" transform="translate(24 4)" fill="#09c"/>
  <path id="Shape-6" data-name="Shape" d="M0,0H2V2H0Z" transform="translate(22 54)" fill="#09c"/>
  <path id="Shape-7" data-name="Shape" d="M22,6H2V4H13V2H2V0H0V16H2V12H18V10H2V8H22Z" transform="translate(9 8)" fill="#353535"/>
  <path id="Shape-8" data-name="Shape" d="M0,0H2V2H0Z" transform="translate(24 10)" fill="#353535"/>
  <path id="Shape-9" data-name="Shape" d="M0,0H2V2H0Z" transform="translate(29 18)" fill="#353535"/>
  <path id="Shape-10" data-name="Shape" d="M0,0H2V2H0Z" transform="translate(33 14)" fill="#353535"/>
</svg>
