<svg id="analysis_2_" data-name="analysis (2)" xmlns="http://www.w3.org/2000/svg" width="60" height="60" viewBox="0 0 60 60">
  <path id="Shape" d="M13.592,57.656H45.469a2.344,2.344,0,0,0,2.344-2.344V10.663L37.148,0H2.344A2.344,2.344,0,0,0,0,2.344V55.313a2.344,2.344,0,0,0,2.344,2.344Z" transform="translate(11.016 1.172)" fill="#fff"/>
  <path id="Shape-2" data-name="Shape" d="M0,0V8.2a2.348,2.348,0,0,0,2.348,2.348h8.2Z" transform="translate(48.164 1.289)" fill="#09c"/>
  <path id="Shape-3" data-name="Shape" d="M14.3,0A14.3,14.3,0,1,1,0,14.3H14.3V0Z" transform="translate(5.391 10.078)" fill="#339"/>
  <path id="Shape-4" data-name="Shape" d="M0,14.3V0A14.186,14.186,0,0,1,10.078,4.188Z" transform="translate(19.688 10.078)" fill="#09c"/>
  <path id="Shape-5" data-name="Shape" d="M14.3,0V14.3H0A14.3,14.3,0,0,1,14.3,0Z" transform="translate(1.172 5.859)" fill="#f5b700"/>
  <circle id="Oval" cx="2.344" cy="2.344" r="2.344" transform="translate(48.984 38.203)" fill="#f5b700"/>
  <circle id="Oval-2" data-name="Oval" cx="2.344" cy="2.344" r="2.344" transform="translate(37.5 49.453)" fill="#09c"/>
  <circle id="Oval-3" data-name="Oval" cx="2.344" cy="2.344" r="2.344" transform="translate(28.242 40.547)" fill="#339"/>
  <circle id="Oval-4" data-name="Oval" cx="2.344" cy="2.344" r="2.344" transform="translate(19.219 49.453)" fill="#f5b700"/>
  <path id="Shape-6" data-name="Shape" d="M56.484,60H13.36a3.52,3.52,0,0,1-3.516-3.516V46.445a1.172,1.172,0,0,1,2.344,0V56.484a1.173,1.173,0,0,0,1.172,1.172H56.484a1.173,1.173,0,0,0,1.172-1.172V13.008H50.508a3.519,3.519,0,0,1-3.515-3.515V2.344H13.36a1.173,1.173,0,0,0-1.172,1.172V5.041a15.554,15.554,0,0,1,3.291-.354,1.173,1.173,0,0,1,1.172,1.172V20.167a1.173,1.173,0,0,1-1.172,1.172H1.172A1.173,1.173,0,0,1,0,20.167,15.5,15.5,0,0,1,9.843,5.75V3.515A3.52,3.52,0,0,1,13.36,0h34.8a1.163,1.163,0,0,1,.828.343L59.657,11.006a1.179,1.179,0,0,1,.344.828v44.65A3.52,3.52,0,0,1,56.484,60ZM14.307,7.083h0A13.112,13.112,0,0,0,2.4,19H14.307V7.083ZM49.336,4V9.492a1.173,1.173,0,0,0,1.172,1.172H56Z" fill="#353535"/>
  <path id="Shape-7" data-name="Shape" d="M.343.343A1.171,1.171,0,0,0,.343,2,1.171,1.171,0,0,0,2,2a1.172,1.172,0,0,0-.828-2A1.18,1.18,0,0,0,.343.343Z" transform="translate(9.844 41.016)" fill="#353535"/>
  <path id="Shape-8" data-name="Shape" d="M15.468,30.938A15.486,15.486,0,0,1,0,15.468,1.172,1.172,0,0,1,1.171,14.3H14.3V1.171A1.172,1.172,0,0,1,15.468,0a15.469,15.469,0,1,1,0,30.938ZM2.394,16.64h0A13.127,13.127,0,1,0,25.538,7.056L16.3,16.3a1.167,1.167,0,0,1-.829.343H2.394ZM16.64,2.394V12.641L23.882,5.4A13.035,13.035,0,0,0,16.64,2.394Z" transform="translate(4.219 8.906)" fill="#353535"/>
  <path id="Shape-9" data-name="Shape" d="M3.514,18.281a3.508,3.508,0,1,1,1.511-6.674l4.3-4.291A3.472,3.472,0,0,1,9,5.846a3.514,3.514,0,0,1,7.027,0,3.461,3.461,0,0,1-.241,1.276L20.265,11.6a3.511,3.511,0,0,1,3.034.016l6.748-6.737a3.469,3.469,0,0,1-.278-1.367A3.517,3.517,0,1,1,31.631,6.6l-6.685,6.674a3.474,3.474,0,0,1,.334,1.491A3.514,3.514,0,1,1,18.6,13.243L14.247,8.9a3.509,3.509,0,0,1-3.29.1L6.683,13.258a3.464,3.464,0,0,1,.345,1.516A3.514,3.514,0,0,1,3.514,18.281Zm0-4.677a1.173,1.173,0,1,0,.842.358l0,0-.014-.013-.005-.005a.025.025,0,0,0-.008-.009A1.163,1.163,0,0,0,3.514,13.6Zm18.252,0a1.17,1.17,0,1,0,1.171,1.169A1.172,1.172,0,0,0,21.766,13.6ZM12.512,4.677a1.17,1.17,0,1,0,1.172,1.169A1.171,1.171,0,0,0,12.512,4.677ZM33.283,2.339a1.169,1.169,0,1,0,1.171,1.169A1.171,1.171,0,0,0,33.283,2.339Z" transform="translate(18.047 37.031)" fill="#353535"/>
  <path id="Shape-10" data-name="Shape" d="M1.175,2.344h6.2A1.172,1.172,0,1,0,7.379,0h-6.2a1.172,1.172,0,1,0,0,2.344Z" transform="translate(38.086 27.539)" fill="#353535"/>
  <path id="Shape-11" data-name="Shape" d="M.343.343a1.172,1.172,0,0,0,.829,2A1.173,1.173,0,0,0,2.344,1.172,1.173,1.173,0,0,0,1.172,0,1.18,1.18,0,0,0,.343.343Z" transform="translate(49.688 27.539)" fill="#353535"/>
  <path id="Shape-12" data-name="Shape" d="M1.171,2.344h14.3A1.172,1.172,0,0,0,15.47,0H1.171a1.172,1.172,0,0,0,0,2.344Z" transform="translate(38.086 16.289)" fill="#353535"/>
  <path id="Shape-13" data-name="Shape" d="M1.171,2.344h14.3A1.172,1.172,0,0,0,15.47,0H1.171a1.172,1.172,0,0,0,0,2.344Z" transform="translate(38.086 21.914)" fill="#353535"/>
</svg>
