<svg xmlns="http://www.w3.org/2000/svg" width="64.028" height="59.896" viewBox="0 0 64.028 59.896">
  <g id="manufacture" transform="translate(0 -0.086)">
    <path id="Shape" d="M24.785,43.374h-6.2a1.034,1.034,0,0,1-1.032-1.033V36.612a15.359,15.359,0,0,1-3.5-1.454L10,39.213a1.032,1.032,0,0,1-1.46,0L4.162,34.831a1.039,1.039,0,0,1-.3-.73,1.027,1.027,0,0,1,.3-.731l4.055-4.054a15.405,15.405,0,0,1-1.454-3.5H1.032A1.033,1.033,0,0,1,0,24.785v-6.2a1.033,1.033,0,0,1,1.032-1.032H6.762a15.406,15.406,0,0,1,1.454-3.5L4.161,10a1.033,1.033,0,0,1,0-1.461L8.543,4.161a1.063,1.063,0,0,1,1.46,0l4.055,4.055a15.4,15.4,0,0,1,3.5-1.454V1.032A1.033,1.033,0,0,1,18.589,0h6.2a1.033,1.033,0,0,1,1.032,1.032v5.73a15.408,15.408,0,0,1,3.5,1.454l4.055-4.055a1.032,1.032,0,0,1,1.46,0l4.381,4.382a1.033,1.033,0,0,1,0,1.461l-4.055,4.054a15.368,15.368,0,0,1,1.455,3.5H42.34a1.034,1.034,0,0,1,1.033,1.032v6.2a1.034,1.034,0,0,1-1.033,1.032H36.612a15.368,15.368,0,0,1-1.455,3.5l4.056,4.054a1.027,1.027,0,0,1,.3.731,1.039,1.039,0,0,1-.3.73l-4.382,4.382a1.061,1.061,0,0,1-1.46,0l-4.055-4.055a15.359,15.359,0,0,1-3.5,1.454V42.34A1.034,1.034,0,0,1,24.785,43.374ZM13.9,32.822a1.028,1.028,0,0,1,.557.164,13.248,13.248,0,0,0,4.351,1.809,1.039,1.039,0,0,1,.813,1.009v5.5h4.131V35.8a1.039,1.039,0,0,1,.813-1.009,13.246,13.246,0,0,0,4.351-1.809,1.032,1.032,0,0,1,1.289.139l3.9,3.9L37.022,34.1l-3.9-3.9a1.026,1.026,0,0,1-.139-1.288,13.263,13.263,0,0,0,1.808-4.351,1.038,1.038,0,0,1,1.009-.811h5.505V19.623H35.8a1.039,1.039,0,0,1-1.009-.812,13.261,13.261,0,0,0-1.808-4.353,1.038,1.038,0,0,1,.139-1.289l3.9-3.9L34.1,6.351l-3.9,3.9a1.034,1.034,0,0,1-1.289.14,13.26,13.26,0,0,0-4.352-1.81,1.039,1.039,0,0,1-.812-1.009v-5.5H19.621v5.5a1.038,1.038,0,0,1-.811,1.009,13.26,13.26,0,0,0-4.352,1.81,1.034,1.034,0,0,1-1.289-.14l-3.9-3.9L6.351,9.273l3.9,3.9a1.037,1.037,0,0,1,.139,1.287A13.227,13.227,0,0,0,8.579,18.81a1.038,1.038,0,0,1-1.009.811h-5.5v4.131h5.5a1.04,1.04,0,0,1,1.009.811,13.241,13.241,0,0,0,1.809,4.353,1.04,1.04,0,0,1-.139,1.289l-3.9,3.9,2.92,2.921,3.9-3.9A1.028,1.028,0,0,1,13.9,32.822Z" transform="translate(0 0.086)" fill="#353535"/>
    <ellipse id="Oval_4" data-name="Oval 4" cx="10.5" cy="10" rx="10.5" ry="10" transform="translate(11 12)" fill="#f5b700"/>
    <path id="Shape-2" data-name="Shape" d="M8.262,16.523a8.262,8.262,0,1,1,8.261-8.261A8.217,8.217,0,0,1,8.262,16.523Zm0-14.458a6.2,6.2,0,1,0,6.2,6.2A6.213,6.213,0,0,0,8.262,2.066Z" transform="translate(13.425 13.511)" fill="#353535"/>
    <path id="Shape-3" data-name="Shape" d="M11.36,22.72A11.36,11.36,0,0,1,3.327,3.327,11.36,11.36,0,0,1,19.392,19.392,11.286,11.286,0,0,1,11.36,22.72Zm0-20.654a9.294,9.294,0,1,0,9.294,9.294A9.319,9.319,0,0,0,11.36,2.066Z" transform="translate(10.327 10.413)" fill="#353535"/>
    <rect id="Rectangle_15" data-name="Rectangle 15" width="9" height="8" transform="translate(49 40)" fill="#339"/>
    <rect id="Rectangle_15_Copy" data-name="Rectangle 15 Copy" width="9" height="8" transform="translate(46 31)" fill="#088ac4"/>
    <rect id="Rectangle_15-2" data-name="Rectangle 15" width="9" height="8" transform="translate(39 40)" fill="#09c"/>
    <path id="Shape-4" data-name="Shape" d="M58.864,30.981H5.163A5.177,5.177,0,0,1,0,25.817V23.752a5.178,5.178,0,0,1,5.163-5.163H38.21V10.327a1.033,1.033,0,0,1,1.032-1.032h5.163V1.032A1.034,1.034,0,0,1,45.439,0h9.294a1.033,1.033,0,0,1,1.032,1.032V9.294h2.066a1.033,1.033,0,0,1,1.032,1.032v8.262a5.179,5.179,0,0,1,5.164,5.163v2.065A5.178,5.178,0,0,1,58.864,30.981ZM5.163,20.654a3.1,3.1,0,0,0-3.1,3.1v2.065a3.1,3.1,0,0,0,3.1,3.1h53.7a3.1,3.1,0,0,0,3.1-3.1V23.752a3.1,3.1,0,0,0-3.1-3.1ZM49.569,11.36v7.229H56.8V11.36Zm-9.294,0v7.229H47.5V11.36Zm6.2-9.294V9.294H53.7V2.066Z" transform="translate(0 29.002)" fill="#353535"/>
    <circle id="Oval_5" data-name="Oval 5" cx="1.5" cy="1.5" r="1.5" transform="translate(10 52)" fill="#339"/>
    <circle id="Oval_5_Copy" data-name="Oval 5 Copy" cx="1.5" cy="1.5" r="1.5" transform="translate(20 52)" fill="#09c"/>
    <ellipse id="Oval_5_Copy_2" data-name="Oval 5 Copy 2" cx="2" cy="1.5" rx="2" ry="1.5" transform="translate(30 52)" fill="#09c"/>
    <ellipse id="Oval_5_Copy_3" data-name="Oval 5 Copy 3" cx="2" cy="1.5" rx="2" ry="1.5" transform="translate(41 52)" fill="#f5b700"/>
    <ellipse id="Oval_5_Copy_4" data-name="Oval 5 Copy 4" cx="2" cy="1.5" rx="2" ry="1.5" transform="translate(51 52)" fill="#088ac4"/>
    <path id="Shape-5" data-name="Shape" d="M3.1,6.2A3.1,3.1,0,1,1,6.2,3.1,3.1,3.1,0,0,1,3.1,6.2Zm0-4.131A1.033,1.033,0,1,0,4.131,3.1,1.033,1.033,0,0,0,3.1,2.066Z" transform="translate(28.916 50.688)" fill="#353535"/>
    <path id="Shape-6" data-name="Shape" d="M3.1,6.2A3.1,3.1,0,1,1,6.2,3.1,3.1,3.1,0,0,1,3.1,6.2Zm0-4.131A1.033,1.033,0,1,0,4.131,3.1,1.033,1.033,0,0,0,3.1,2.066Z" transform="translate(18.589 50.688)" fill="#353535"/>
    <path id="Shape-7" data-name="Shape" d="M3.1,6.2A3.1,3.1,0,1,1,6.2,3.1,3.1,3.1,0,0,1,3.1,6.2Zm0-4.131A1.033,1.033,0,1,0,4.131,3.1,1.033,1.033,0,0,0,3.1,2.066Z" transform="translate(39.243 50.688)" fill="#353535"/>
    <path id="Shape-8" data-name="Shape" d="M3.1,6.2A3.1,3.1,0,1,1,6.2,3.1,3.1,3.1,0,0,1,3.1,6.2Zm0-4.131A1.033,1.033,0,1,0,4.131,3.1,1.033,1.033,0,0,0,3.1,2.066Z" transform="translate(8.262 50.688)" fill="#353535"/>
    <path id="Shape-9" data-name="Shape" d="M3.1,6.2A3.1,3.1,0,1,1,6.2,3.1,3.1,3.1,0,0,1,3.1,6.2Zm0-4.131A1.033,1.033,0,1,0,4.131,3.1,1.033,1.033,0,0,0,3.1,2.066Z" transform="translate(49.57 50.688)" fill="#353535"/>
  </g>
</svg>
