<svg id="right_arrow" data-name="right arrow" xmlns="http://www.w3.org/2000/svg" width="38" height="30" viewBox="0 0 38 30">
  <path id="Shape" d="M.669,17.194c11.013,2.719,22.125,2.3,33.117.352v.076l-1.705,5.6c-1.163,3.83.881,9.322,2.036,5.458l2.466-8.2a20.95,20.95,0,0,0,1.409-7.535,15.042,15.042,0,0,0-1.917-6.665c-.972-2.111-2.036-3.878-3.03-5.9-.7-1.428-1.325,1.463-.867,3.008.493,1.656.923,3.45,1.409,5.113q.211.725.423,1.435C22.914,12.7,11.8,13.337.662,13.5-.239,13.5-.2,16.98.669,17.194Z" fill="#09c"/>
</svg>
