<svg xmlns="http://www.w3.org/2000/svg" width="126.666" height="147.952" viewBox="0 0 126.666 147.952">
  <path id="Shape" d="M122.344,7.915c-4.607-2.175-9.263-4.308-14.062-6.024C104.318.474,100.037-1.176,96.073,1.2,92.8,3.165,90.348,7.14,88.178,10.181,85.391,14.1,82.445,18.331,81.1,23c-.526,1.808,1.744,3.9,3.438,2.641,4.323-3.233,7.869-7.624,11.383-11.824,2.228,20.7-9.046,39.422-26.9,50.1-18.81,11.249-45.339,16.507-66.3,8.8-2.3-.833-3.864,2.866-1.669,3.966C23.587,88,54.072,83.009,75.193,70.46c19.761-11.741,35.375-35.547,30.66-59.162a8.912,8.912,0,0,0,.835.442c3.48,1.725,6.985,3.391,10.423,5.2C123.07,20.056,128.369,10.748,122.344,7.915Z" transform="matrix(0.407, 0.914, -0.914, 0.407, 75.824, 0)" fill="#353535"/>
</svg>
